<svg xmlns="http://www.w3.org/2000/svg" viewBox="0 0 145.88 99.01"><title>quote</title><g id="Layer_2" data-name="Layer 2"><g id="Layer_1-2" data-name="Layer 1"><path d="M70.88,35.5A35.48,35.48,0,0,1,35.38,71a34.32,34.32,0,0,1-4.2-.25A25.4,25.4,0,0,0,48.67,99C22.57,90.84,1.55,67.71.07,39.76c-.54-10.26,2.1-20.6,9.17-28.29a35.51,35.51,0,0,1,61.64,24ZM110.38,0A35.7,35.7,0,0,0,84.24,11.47c-7.07,7.69-9.71,18-9.17,28.29,1.48,27.95,22.5,51.08,48.6,59.25a25.4,25.4,0,0,1-17.49-28.26,34.32,34.32,0,0,0,4.2.25,35.5,35.5,0,0,0,0-71Z"/></g></g></svg>